<svg xmlns="http://www.w3.org/2000/svg" width="248.238" height="74.804" viewBox="0 0 248.238 74.804">
  <path id="amazon" d="M29.718,31.607V29.942c-5.555,0-11.42,1.187-11.42,7.736,0,3.318,1.719,5.564,4.665,5.564a6.224,6.224,0,0,0,5.317-3.487c1.513-2.658,1.438-5.156,1.438-8.148M37.466,50.33a1.609,1.609,0,0,1-1.815.185,18.946,18.946,0,0,1-4.408-5.123c-4.215,4.3-7.2,5.589-12.664,5.589-6.462,0-11.5-3.99-11.5-11.973a13.059,13.059,0,0,1,8.193-12.558c4.171-1.834,9.994-2.16,14.445-2.667v-.993c0-1.83.14-3.99-.929-5.568a5.148,5.148,0,0,0-4.313-2c-2.926,0-5.543,1.5-6.178,4.616a1.612,1.612,0,0,1-1.331,1.405l-7.456-.8a1.363,1.363,0,0,1-1.146-1.611C10.085,9.8,18.245,7.08,25.548,7.08c3.738,0,8.622.993,11.572,3.825,3.738,3.487,3.382,8.144,3.382,13.213V36.091c0,3.6,1.491,5.177,2.9,7.122a1.443,1.443,0,0,1-.021,2.04c-1.567,1.306-4.355,3.738-5.89,5.1h-.021m92.967-18.744V29.942c-5.568,0-11.433,1.187-11.433,7.736,0,3.318,1.727,5.564,4.678,5.564A6.239,6.239,0,0,0,129,39.755c1.513-2.658,1.438-5.156,1.438-8.148m7.744,18.724a1.605,1.605,0,0,1-1.813.185,18.726,18.726,0,0,1-4.41-5.123c-4.212,4.3-7.2,5.589-12.661,5.589-6.475,0-11.5-3.99-11.5-11.973a13.044,13.044,0,0,1,8.189-12.558c4.171-1.834,9.994-2.16,14.45-2.667v-.993c0-1.83.14-3.99-.944-5.568a5.113,5.113,0,0,0-4.311-2c-2.926,0-5.531,1.5-6.17,4.616a1.6,1.6,0,0,1-1.339,1.405l-7.443-.8a1.355,1.355,0,0,1-1.146-1.611C110.787,9.8,118.956,7.08,126.263,7.08c3.738,0,8.622.993,11.569,3.825,3.742,3.487,3.384,8.144,3.384,13.213V36.091c0,3.6,1.492,5.177,2.9,7.122a1.443,1.443,0,0,1-.041,2.04c-1.566,1.306-4.356,3.738-5.89,5.1m94.608.087h-7.649a1.457,1.457,0,0,1-1.385-1.426V9.573a1.459,1.459,0,0,1,1.484-1.286h7.118a1.476,1.476,0,0,1,1.372,1.1v6.03h.14c2.151-5.395,5.164-7.967,10.473-7.967a10.085,10.085,0,0,1,8.968,4.649c2.007,3.153,2.007,8.457,2.007,12.274V49.2a1.471,1.471,0,0,1-1.48,1.241h-7.7a1.453,1.453,0,0,1-1.36-1.241V27.782c0-4.311.495-10.621-4.81-10.621a5.026,5.026,0,0,0-4.443,3.153,17.471,17.471,0,0,0-1.22,7.468v21.23a1.467,1.467,0,0,1-1.5,1.426M200.437,7.455c11.4,0,17.57,9.793,17.57,22.239,0,12.026-6.817,21.567-17.57,21.567-11.194,0-17.285-9.793-17.285-21.988,0-12.278,6.17-21.819,17.285-21.819m.066,8.053c-5.663,0-6.017,7.711-6.017,12.521s-.074,15.105,5.951,15.105c5.955,0,6.236-8.3,6.236-13.353a36.429,36.429,0,0,0-1.146-10.46c-.861-2.745-2.58-3.812-5.024-3.812M58.45,50.438H50.767a1.449,1.449,0,0,1-1.372-1.306V9.705a1.442,1.442,0,0,1,1.48-1.418h7.163A1.453,1.453,0,0,1,59.43,9.606v5.156h.14c1.871-4.983,5.383-7.307,10.114-7.307,4.81,0,7.814,2.324,9.974,7.307a11.344,11.344,0,0,1,19.5-3c2.432,3.318,1.937,8.14,1.937,12.364V49.012a1.45,1.45,0,0,1-1.484,1.426h-7.67a1.46,1.46,0,0,1-1.385-1.426v-20.9c0-1.665.152-5.811-.214-7.39-.573-2.65-2.292-3.392-4.517-3.392a5.1,5.1,0,0,0-4.591,3.227c-.787,1.991-.713,5.317-.713,7.555v20.9a1.449,1.449,0,0,1-1.48,1.426h-7.67a1.451,1.451,0,0,1-1.385-1.426v-20.9c0-4.4.721-10.868-4.736-10.868-5.519,0-5.3,6.31-5.3,10.868v20.9a1.449,1.449,0,0,1-1.48,1.426m92.094-35.189V9.606A1.391,1.391,0,0,1,151.99,8.18h25.252A1.409,1.409,0,0,1,178.7,9.606v4.83c0,.812-.692,1.871-1.9,3.544L163.711,36.664c4.863-.12,9.994.606,14.4,3.091a2.563,2.563,0,0,1,1.339,2.193v6.017c0,.82-.907,1.785-1.859,1.286a29.086,29.086,0,0,0-26.678.045c-.874.474-1.793-.478-1.793-1.3V42.281a6.716,6.716,0,0,1,.931-3.878l15.159-21.741H152.023a1.4,1.4,0,0,1-1.459-1.414m16.51,43.469c-1.838-2.357-12.191-1.113-16.836-.565-1.414.173-1.632-1.059-.354-1.945,8.243-5.8,21.769-4.126,23.348-2.18s-.412,15.517-8.156,21.988c-1.191.993-2.324.466-1.8-.853,1.743-4.344,5.642-14.079,3.8-16.445m-6,6.858c2.386-1.772.346-4.406-2.1-3.371a129.6,129.6,0,0,1-49.725,10.168A131.141,131.141,0,0,1,44.067,55.087c-1.621-.952-2.831.713-1.48,1.933a96.516,96.516,0,0,0,65.154,24.865c18,0,38.91-5.675,53.336-16.309Z" transform="translate(-7.08 -7.08)" fill="#fff"/>
</svg>
