<svg xmlns="http://www.w3.org/2000/svg" width="465.96" height="79.904" viewBox="0 0 465.96 79.904">
  <path id="Path_40" data-name="Path 40" d="M-230.956,17.424h13.376V-3.96h.176c1.936,2.816,5.984,4.928,11.176,4.928,9.592,0,19.536-7.392,19.536-23.056,0-13.728-8.448-21.912-17.864-21.912-6.248,0-11.176,2.376-14.344,6.952h-.176l-.616-5.984h-11.616c.176,3.96.352,8.8.352,14.432Zm13.376-41.8a10.348,10.348,0,0,1,.264-2.376,8.4,8.4,0,0,1,8.008-6.776c5.984,0,9.064,5.192,9.064,12.056,0,7.3-3.432,12.144-9.24,12.144a8.1,8.1,0,0,1-7.832-6.336,13.322,13.322,0,0,1-.264-2.816ZM-178.332,0h13.376V-21.824a15.773,15.773,0,0,1,.264-2.992c.88-4.136,4.224-6.776,9.152-6.776a19.175,19.175,0,0,1,3.608.352V-43.824A13.786,13.786,0,0,0-154.748-44c-4.136,0-9.416,2.64-11.616,8.888h-.352l-.44-7.92h-11.528c.176,3.7.352,7.832.352,14.168Zm46.816,0V-43.032h-13.376V0ZM-138.2-61.776c-4.312,0-7.128,2.9-7.04,6.776-.088,3.7,2.728,6.688,6.952,6.688,4.4,0,7.216-2.992,7.216-6.688A6.708,6.708,0,0,0-138.2-61.776Zm48.136,50.864a20.634,20.634,0,0,1-7.656,1.32c-6.512,0-11.792-4.136-11.792-12.056-.088-7.04,4.488-12.056,11.528-12.056a18.3,18.3,0,0,1,7.48,1.32l2.112-9.944A31.028,31.028,0,0,0-98.6-44c-16.016,0-24.64,10.3-24.64,22.88,0,13.552,8.888,22,22.792,22,5.1,0,9.592-.88,11.968-1.936Zm46.024-6.336a31.775,31.775,0,0,0,.44-5.28C-43.6-33.176-48.884-44-62.788-44c-14.96,0-21.736,12.056-21.736,22.968C-84.524-7.568-76.164.88-61.556.88A42.476,42.476,0,0,0-45.98-1.76l-1.76-9.064a37.9,37.9,0,0,1-11.88,1.76c-6.248,0-11.7-2.64-12.144-8.184ZM-71.852-26.4c.352-3.608,2.64-8.712,8.272-8.712,6.16,0,7.568,5.456,7.568,8.712Zm38.1-25.96v9.328h-5.72v9.856h5.72v17.6c0,6.072,1.232,10.208,3.7,12.76,2.112,2.2,5.72,3.7,10.032,3.7A26.241,26.241,0,0,0-11.308-.264l-.088-10.12a21.845,21.845,0,0,1-3.96.352c-4.048,0-5.28-2.376-5.28-7.568V-33.176h9.592v-9.856h-9.592v-12.32ZM-3.3,0H10.076V-21.824a15.773,15.773,0,0,1,.264-2.992c.88-4.136,4.224-6.776,9.152-6.776a19.175,19.175,0,0,1,3.608.352V-43.824A13.786,13.786,0,0,0,20.284-44c-4.136,0-9.416,2.64-11.616,8.888H8.316l-.44-7.92H-3.652c.176,3.7.352,7.832.352,14.168ZM65.692,0a66.672,66.672,0,0,1-.616-10.472v-14.96C65.076-35.552,60.5-44,46.156-44a35.521,35.521,0,0,0-16.72,3.784L31.9-31.592a24.2,24.2,0,0,1,11.88-3.256c6.6,0,7.832,3.256,7.832,5.544v.616c-15.224-.088-25.256,5.28-25.256,16.456,0,6.864,5.192,13.2,13.9,13.2,5.1,0,9.5-1.848,12.32-5.28h.264L53.636,0ZM52.052-15.664a9.592,9.592,0,0,1-.264,2.288,7.307,7.307,0,0,1-6.952,4.928c-2.992,0-5.28-1.672-5.28-5.1,0-5.192,5.456-6.864,12.5-6.776Zm54.3,4.752a20.634,20.634,0,0,1-7.656,1.32C92.18-9.592,86.9-13.728,86.9-21.648,86.812-28.688,91.388-33.7,98.428-33.7a18.3,18.3,0,0,1,7.48,1.32l2.112-9.944A31.028,31.028,0,0,0,97.812-44C81.8-44,73.172-33.7,73.172-21.12c0,13.552,8.888,22,22.792,22,5.1,0,9.592-.88,11.968-1.936ZM128.7-62.48H115.324V0H128.7V-13.464l3.432-4.224L142.516,0h16.456l-17.6-25.608,15.4-17.424h-16.1L131.956-30.1c-1.056,1.672-2.112,3.432-3.08,5.192H128.7Zm71.1,45.232a31.776,31.776,0,0,0,.44-5.28c0-10.648-5.28-21.472-19.184-21.472-14.96,0-21.736,12.056-21.736,22.968,0,13.464,8.36,21.912,22.968,21.912a42.476,42.476,0,0,0,15.576-2.64l-1.76-9.064a37.9,37.9,0,0,1-11.88,1.76c-6.248,0-11.7-2.64-12.144-8.184ZM172-26.4c.352-3.608,2.64-8.712,8.272-8.712,6.16,0,7.568,5.456,7.568,8.712ZM208.252,0h13.376V-21.824a15.773,15.773,0,0,1,.264-2.992c.88-4.136,4.224-6.776,9.152-6.776a19.175,19.175,0,0,1,3.608.352V-43.824A13.786,13.786,0,0,0,231.836-44c-4.136,0-9.416,2.64-11.616,8.888h-.352l-.44-7.92H207.9c.176,3.7.352,7.832.352,14.168Z" transform="translate(231.308 62.48)" fill="#fff"/>
</svg>
