<svg xmlns="http://www.w3.org/2000/svg" width="199.208" height="39.414" viewBox="0 0 199.208 39.414">
  <g id="Group_1" data-name="Group 1" transform="translate(-59.099 -11.73)">
    <path id="Path_38" data-name="Path 38" d="M-98.753,7.326h5.624V-1.665h.074a5.62,5.62,0,0,0,4.7,2.072c4.033,0,8.214-3.108,8.214-9.694,0-5.772-3.552-9.213-7.511-9.213a6.943,6.943,0,0,0-6.031,2.923h-.074l-.259-2.516H-98.9c.074,1.665.148,3.7.148,6.068Zm5.624-17.575a4.351,4.351,0,0,1,.111-1A3.533,3.533,0,0,1-89.651-14.1c2.516,0,3.811,2.183,3.811,5.069,0,3.071-1.443,5.106-3.885,5.106a3.4,3.4,0,0,1-3.293-2.664,5.6,5.6,0,0,1-.111-1.184ZM-76.627,0H-71V-9.176a6.632,6.632,0,0,1,.111-1.258,3.616,3.616,0,0,1,3.848-2.849,8.062,8.062,0,0,1,1.517.148v-5.291a5.8,5.8,0,0,0-1.184-.074A5.315,5.315,0,0,0-71.6-14.763h-.148l-.185-3.33h-4.847c.074,1.554.148,3.293.148,5.957Zm19.684,0V-18.093h-5.624V0Zm-2.812-25.974a2.749,2.749,0,0,0-2.96,2.849,2.75,2.75,0,0,0,2.923,2.812,2.824,2.824,0,0,0,3.034-2.812A2.821,2.821,0,0,0-59.755-25.974ZM-39.516-4.588a8.676,8.676,0,0,1-3.219.555A4.708,4.708,0,0,1-47.693-9.1a4.682,4.682,0,0,1,4.847-5.069,7.7,7.7,0,0,1,3.145.555l.888-4.181a13.046,13.046,0,0,0-4.292-.7c-6.734,0-10.36,4.329-10.36,9.62,0,5.7,3.737,9.25,9.583,9.25A13.719,13.719,0,0,0-38.85-.444Zm19.351-2.664a13.36,13.36,0,0,0,.185-2.22c0-4.477-2.22-9.028-8.066-9.028-6.29,0-9.139,5.069-9.139,9.657,0,5.661,3.515,9.213,9.657,9.213A17.859,17.859,0,0,0-20.979-.74l-.74-3.811a15.935,15.935,0,0,1-4.995.74c-2.627,0-4.921-1.11-5.106-3.441ZM-31.857-11.1c.148-1.517,1.11-3.663,3.478-3.663,2.59,0,3.182,2.294,3.182,3.663Zm16.021-10.915v3.922h-2.405v4.144h2.405v7.4c0,2.553.518,4.292,1.554,5.365A5.85,5.85,0,0,0-10.064.37,11.033,11.033,0,0,0-6.4-.111l-.037-4.255A9.185,9.185,0,0,1-8.1-4.218c-1.7,0-2.22-1-2.22-3.182v-6.549H-6.29v-4.144h-4.033v-5.18ZM-3.034,0H2.59V-9.176A6.632,6.632,0,0,1,2.7-10.434a3.616,3.616,0,0,1,3.848-2.849,8.062,8.062,0,0,1,1.517.148v-5.291A5.8,5.8,0,0,0,6.882-18.5,5.315,5.315,0,0,0,2-14.763H1.85l-.185-3.33H-3.182c.074,1.554.148,3.293.148,5.957Zm49.4-4.588a8.676,8.676,0,0,1-3.219.555A4.708,4.708,0,0,1,38.184-9.1a4.682,4.682,0,0,1,4.847-5.069,7.7,7.7,0,0,1,3.145.555l.888-4.181a13.046,13.046,0,0,0-4.292-.7c-6.734,0-10.36,4.329-10.36,9.62,0,5.7,3.737,9.25,9.583,9.25a13.719,13.719,0,0,0,5.032-.814Zm9.4-21.682H50.135V0h5.624V-5.661L57.2-7.437,61.568,0h6.919l-7.4-10.767,6.475-7.326H60.791l-3.663,5.439c-.444.7-.888,1.443-1.295,2.183h-.074Zm29.9,19.018a13.359,13.359,0,0,0,.185-2.22c0-4.477-2.22-9.028-8.066-9.028-6.29,0-9.139,5.069-9.139,9.657C68.635-3.182,72.15.37,78.292.37A17.859,17.859,0,0,0,84.841-.74L84.1-4.551a15.935,15.935,0,0,1-5,.74c-2.627,0-4.921-1.11-5.106-3.441ZM73.963-11.1c.148-1.517,1.11-3.663,3.478-3.663,2.59,0,3.182,2.294,3.182,3.663ZM89.207,0h5.624V-9.176a6.632,6.632,0,0,1,.111-1.258,3.616,3.616,0,0,1,3.848-2.849,8.062,8.062,0,0,1,1.517.148v-5.291a5.8,5.8,0,0,0-1.184-.074,5.315,5.315,0,0,0-4.884,3.737h-.148l-.185-3.33H89.059c.074,1.554.148,3.293.148,5.957Z" transform="translate(158 38)" fill="#d6d6d6"/>
    <path id="Amazon_2_" data-name="Amazon (2)" d="M.065,25.327q.163-.261.522-.033a34.772,34.772,0,0,0,17.755,4.732,35.125,35.125,0,0,0,12.631-2.383q.163-.065.473-.2t.441-.2a.581.581,0,0,1,.767.2q.277.392-.18.718-.587.424-1.5.979a24.463,24.463,0,0,1-6.266,2.578,26.4,26.4,0,0,1-6.756.914,26.138,26.138,0,0,1-9.628-1.779A26.512,26.512,0,0,1,.2,25.849a.446.446,0,0,1-.2-.326A.351.351,0,0,1,.065,25.327Zm9.824-9.3A6.587,6.587,0,0,1,11,12.174a6.849,6.849,0,0,1,3.035-2.415,16.422,16.422,0,0,1,4.341-1.077q.881-.1,2.872-.261V7.866a5.812,5.812,0,0,0-.457-2.807,2.447,2.447,0,0,0-2.154-.979h-.261a3.571,3.571,0,0,0-1.86.685A2.675,2.675,0,0,0,15.5,6.4a.829.829,0,0,1-.653.751L11.1,6.691q-.555-.131-.555-.587a.959.959,0,0,1,.033-.228A6.256,6.256,0,0,1,13.3,1.567,10.229,10.229,0,0,1,18.375,0h.816A8.248,8.248,0,0,1,25,1.926a6.218,6.218,0,0,1,.6.7,6.322,6.322,0,0,1,.441.669,3.425,3.425,0,0,1,.294.849q.131.555.2.767a4.661,4.661,0,0,1,.1.914q.033.7.033.832v7.9a4.681,4.681,0,0,0,.245,1.55,4.038,4.038,0,0,0,.473,1.012q.228.31.751,1a.977.977,0,0,1,.2.522.565.565,0,0,1-.261.457q-2.709,2.35-2.937,2.546a.909.909,0,0,1-.947.065q-.457-.392-.8-.751t-.49-.522a7.288,7.288,0,0,1-.473-.636q-.326-.473-.457-.636a8.014,8.014,0,0,1-3.59,2.48,9.853,9.853,0,0,1-2.742.326,5.719,5.719,0,0,1-4.129-1.55A5.8,5.8,0,0,1,9.889,16.025Zm5.614-.653a3.093,3.093,0,0,0,.636,2.04,2.111,2.111,0,0,0,1.713.767,1.668,1.668,0,0,0,.277-.033,1.667,1.667,0,0,1,.245-.033A3.317,3.317,0,0,0,20.5,16.352,5.108,5.108,0,0,0,21.035,15a6.2,6.2,0,0,0,.2-1.191q.016-.457.016-1.5v-.816a11.891,11.891,0,0,0-2.872.261A3.5,3.5,0,0,0,15.5,15.372ZM29.211,25.882a1.022,1.022,0,0,1,.2-.261,5.123,5.123,0,0,1,1.567-.751,10.64,10.64,0,0,1,2.415-.359,1.949,1.949,0,0,1,.62.033q1.469.131,1.762.49a1.068,1.068,0,0,1,.131.587v.228a7.441,7.441,0,0,1-.62,2.693,6.267,6.267,0,0,1-1.73,2.5.493.493,0,0,1-.294.131.289.289,0,0,1-.131-.033q-.2-.1-.1-.359a12.455,12.455,0,0,0,1.208-3.949.837.837,0,0,0-.131-.522q-.326-.392-1.828-.392-.555,0-1.306.065-.816.1-1.5.2a.378.378,0,0,1-.261-.065.107.107,0,0,1-.033-.131A.25.25,0,0,1,29.211,25.882Z" transform="translate(159 18.506)" fill="#d6d6d6"/>
  </g>
</svg>
