<svg xmlns="http://www.w3.org/2000/svg" xmlns:xlink="http://www.w3.org/1999/xlink" width="472.625" height="753.74" viewBox="0 0 472.625 753.74">
  <defs>
    <linearGradient id="linear-gradient" x1="0.5" y1="1" x2="0.5" gradientUnits="objectBoundingBox">
      <stop offset="0" stop-color="gray" stop-opacity="0.251"/>
      <stop offset="0.54" stop-color="gray" stop-opacity="0.122"/>
      <stop offset="1" stop-color="gray" stop-opacity="0.102"/>
    </linearGradient>
    <linearGradient id="linear-gradient-2" x1="0.5" y1="1" x2="0.5" y2="0" xlink:href="#linear-gradient"/>
    <linearGradient id="linear-gradient-3" x1="0.146" y1="1.023" x2="0.933" y2="-0.011" xlink:href="#linear-gradient"/>
    <linearGradient id="linear-gradient-4" x1="0.5" y1="1" x2="0.5" gradientUnits="objectBoundingBox">
      <stop offset="0" stop-color="#fcfdff"/>
      <stop offset="1" stop-color="#b2ebf2"/>
    </linearGradient>
    <linearGradient id="linear-gradient-5" x1="0.5" y1="1" x2="0.5" y2="0" xlink:href="#linear-gradient"/>
    <linearGradient id="linear-gradient-6" x1="0.5" y1="1" x2="0.5" y2="-0.001" xlink:href="#linear-gradient"/>
    <linearGradient id="linear-gradient-7" x1="0.5" y1="1" x2="0.5" y2="0" xlink:href="#linear-gradient"/>
    <linearGradient id="linear-gradient-8" x1="0.5" y1="1" x2="0.5" y2="0" xlink:href="#linear-gradient"/>
  </defs>
  <g id="undraw_selfie" transform="translate(0.034 0)">
    <path id="Path_1" data-name="Path 1" d="M525,333.23h0a33.9,33.9,0,0,1-46.61,10.59l-98.71-65.05a33.9,33.9,0,0,1-10.59-46.61h0a33.9,33.9,0,0,1,46.61-10.59l98.71,65.05A33.9,33.9,0,0,1,525,333.23Z" transform="translate(-363.96 -73.13)" fill="url(#linear-gradient)"/>
    <path id="Path_2" data-name="Path 2" d="M519.55,329.67h0a31.51,31.51,0,0,1-43.33,9.85L384.46,279a31.51,31.51,0,0,1-9.85-43.33h0a31.51,31.51,0,0,1,43.33-9.85l91.77,60.47a31.51,31.51,0,0,1,9.84,43.38Z" transform="translate(-363.96 -73.13)" fill="#be7c5e"/>
    <path id="Path_3" data-name="Path 3" d="M836,642.19a72.1,72.1,0,0,0-142.93-13.44l-221.58-6L474,660.81s-31.59,72.9,134.46,92.35v73.71h192V704.39A72.06,72.06,0,0,0,836,642.19Z" transform="translate(-363.96 -73.13)" fill="url(#linear-gradient-2)"/>
    <path id="Path_4" data-name="Path 4" d="M452.66,673.6c-1.14,20.51,12.74,63.27,142.11,77.24v70.6H794.19v-187L452.56,625.9l.11,1.65a368.716,368.716,0,0,1-.01,46.05Z" transform="translate(-363.96 -73.13)" fill="#be7c5e"/>
    <g id="Group_1" data-name="Group 1" opacity="0.5">
      <path id="Path_5" data-name="Path 5" d="M747.91,73.13l-295.19.72A12.13,12.13,0,0,0,440.62,86L442,638.11a12.13,12.13,0,0,0,12.16,12.1l295.19-.72a12.13,12.13,0,0,0,12.1-12.16l-1.37-552.1a12.13,12.13,0,0,0-12.17-12.1Z" transform="translate(-363.96 -73.13)" fill="url(#linear-gradient-3)"/>
    </g>
    <rect id="Rectangle_1" data-name="Rectangle 1" width="310.82" height="561.04" rx="13.64" transform="translate(80.968 8.263) rotate(-0.14)" fill="#fff"/>
    <path id="_Path_" data-name="&lt;Path&gt;" d="M678.45,94.89a25.2,25.2,0,0,1-24.78,21.49l-107.36.26a25.2,25.2,0,0,1-24.89-21.37l-56.87.14a11.81,11.81,0,0,0-11.78,11.83L454,616.54a11.81,11.81,0,0,0,11.83,11.78l271.63-.66a11.81,11.81,0,0,0,11.78-11.83L748,106.53a11.81,11.81,0,0,0-11.83-11.78Z" transform="translate(-363.96 -73.13)" fill="#f90"/>
    <rect id="Rectangle_2" data-name="Rectangle 2" width="69.26" height="4.33" rx="2" transform="translate(198.966 29.229) rotate(-0.86)" fill="#dbdbdb"/>
    <circle id="Ellipse_1" data-name="Ellipse 1" cx="2.6" cy="2.6" r="2.6" transform="translate(280.323 27.138) rotate(-0.86)" fill="#dbdbdb"/>
    <circle id="Ellipse_2" data-name="Ellipse 2" cx="24.86" cy="24.86" r="24.86" transform="translate(212.01 483.41)" fill="#eee" opacity="0.5"/>
    <circle id="Ellipse_3" data-name="Ellipse 3" cx="17.52" cy="17.52" r="17.52" transform="translate(219.35 490.75)" fill="none" stroke="#6c63ff" stroke-miterlimit="10" stroke-width="1" opacity="0.2"/>
    <rect id="Rectangle_3" data-name="Rectangle 3" width="30.18" height="30.18" transform="translate(123.24 493.18)" fill="#eee" opacity="0.5"/>
    <path id="Path_6" data-name="Path 6" d="M710.67,570.65v-3.32a1,1,0,0,0-1-1H698a1,1,0,0,0-1,1v3.32h-4.52v-2H689.8v2h-3.35v20.07h34.79V570.65Z" transform="translate(-363.96 -73.13)" fill="#eee" opacity="0.5"/>
    <rect id="Rectangle_4" data-name="Rectangle 4" width="296.52" height="371.98" transform="translate(88.61 80.35)" fill="url(#linear-gradient-4)"/>
    <circle id="Ellipse_4" data-name="Ellipse 4" cx="7.99" cy="7.99" r="7.99" transform="translate(345.18 49.28)" fill="#eee" opacity="0.7"/>
    <circle id="Ellipse_5" data-name="Ellipse 5" cx="7.99" cy="7.99" r="7.99" transform="translate(350.51 57.27)" fill="#eee" opacity="0.7"/>
    <circle id="Ellipse_6" data-name="Ellipse 6" cx="7.99" cy="7.99" r="7.99" transform="translate(338.97 57.27)" fill="#eee" opacity="0.5"/>
    <path id="Path_7" data-name="Path 7" d="M109.03,49.28l12.43,7.99L103.7,65.26l8.88,7.99" fill="#eee" opacity="0.7"/>
    <rect id="Rectangle_5" data-name="Rectangle 5" width="87.89" height="225.5" transform="translate(88.61 226.84)" fill="#6c63ff" opacity="0.3"/>
    <rect id="Rectangle_6" data-name="Rectangle 6" width="43.5" height="53.27" transform="translate(300.79 399.07)" fill="#6c63ff" opacity="0.3"/>
    <rect id="Rectangle_7" data-name="Rectangle 7" width="37.29" height="98.54" transform="translate(344.3 354.68)" fill="#6c63ff" opacity="0.3"/>
    <path id="Path_8" data-name="Path 8" d="M528,525.46H513.8S509.39,370.1,528,322.16h3.55S519.15,497.94,528,525.46Z" transform="translate(-363.96 -73.13)" fill="#fff8e1"/>
    <path id="Path_9" data-name="Path 9" d="M518.27,314.17s-11.54,32-6.21,46.17c0,0,8-29.3,17.31-33.74s19.09,33.74,19.09,33.74,5.33-24-4.44-43.5c0,0,19.53,10.65,29.3,31.07,0,0,1.78-13.32-21.31-40.84,0,0,20.42,5.33,33.74,17.76,0,0,4.44-9.77-23.08-25.75,0,0,3.55-11.54,24.86-6.21,0,0,0-15.09-33.74-12.43,0,0,0-9.77,22.19-8,0,0,0-12.43-25.75-8,0,0,5.33-8,8.88-9.77,0,0-7.1-.89-12.43,3.55,0,0,.89-16-12.43-22.19l-1.78,22.19s-14.92-17.59-11.54-14.2c.89.89,3.55,11.54,2.66,16.87,0,0-15.09-12.43-33.74.89,0,0,23.08,1.78,26.63,9.77,0,0-19.53-3.55-24-.89,0,0,15.09,5.33,14.2,8.88,0,0-26.63,0-30.18,9.77,0,0,27.52,3.55,29.3,6.21,0,0-32,23.08-33.74,29.3,0,0,32.85-19.53,38.17-19.53s-24,28.41-22.19,35.51C488.08,340.8,512.05,312.4,518.27,314.17Z" transform="translate(-363.96 -73.13)" fill="#c8e6c9"/>
    <path id="Path_10" data-name="Path 10" d="M539.71,443.68s-39.43,12.91-29.44,81.79h18.64l22.24-70.34Z" transform="translate(-363.96 -73.13)" fill="#be7c5e"/>
    <path id="Path_11" data-name="Path 11" d="M662.39,443.68s38.11,14.68,28.11,83.56l-18.3-.14-21.26-72Z" transform="translate(-363.96 -73.13)" fill="#be7c5e"/>
    <path id="Path_12" data-name="Path 12" d="M541.35,330.82s-18,92.53-27.81,87.62c0,0,94.69,81.78,178.29,0,0,0-14.72-66.36-36-87.62Z" transform="translate(-363.96 -73.13)" fill="#333"/>
    <circle id="Ellipse_7" data-name="Ellipse 7" cx="70.33" cy="70.33" r="70.33" transform="translate(167.76 182.45)" fill="#333"/>
    <path id="Path_13" data-name="Path 13" d="M673.11,527.1s8.18-18,1.64-40.89-1.64-1.64-1.64-1.64l-11.45-40.89H539l-11.45,49.07s-6.72,22.72,1.64,32.71" transform="translate(-363.96 -73.13)" opacity="0.1"/>
    <path id="Path_14" data-name="Path 14" d="M662.39,443.68H539.71l-11.45,49.07s-11.39,32.55,1.64,32.71c144.62,1.78.8,0,143.94,1.64,0,0,8.18-18,1.64-40.89s-1.64-1.64-1.64-1.64Z" transform="translate(-363.96 -73.13)" fill="#6a67f6"/>
    <path id="Path_15" data-name="Path 15" d="M213.38,329.84h49.07V386.9a6.73,6.73,0,0,1-6.73,6.73H220.1a6.73,6.73,0,0,1-6.73-6.73V329.84Z" opacity="0.1"/>
    <path id="Path_16" data-name="Path 16" d="M213.38,328h49.07v57.07a6.73,6.73,0,0,1-6.73,6.73H220.1a6.73,6.73,0,0,1-6.73-6.73V328Z" fill="#be7c5e"/>
    <path id="Path_17" data-name="Path 17" d="M577.42,408.22a70.62,70.62,0,0,0,49.07.14v-6H577.42Z" transform="translate(-363.96 -73.13)" opacity="0.1"/>
    <path id="Path_27" data-name="Path 27" d="M70.33,0A70.33,70.33,0,1,1,0,70.33,70.33,70.33,0,0,1,70.33,0Z" transform="translate(167.76 197.72)" fill="#be7c5e"/>
    <path id="Path_18" data-name="Path 18" d="M534.81,314.46H668.93s-11.45-54.16-62.15-50.71S534.81,314.46,534.81,314.46Z" transform="translate(-363.96 -73.13)" fill="#333"/>
    <ellipse id="Ellipse_9" data-name="Ellipse 9" cx="6.54" cy="12.27" rx="6.54" ry="12.27" transform="translate(162.67 252.78)" fill="#be7c5e"/>
    <ellipse id="Ellipse_10" data-name="Ellipse 10" cx="6.54" cy="12.27" rx="6.54" ry="12.27" transform="translate(300.07 252.78)" fill="#be7c5e"/>
    <path id="Path_19" data-name="Path 19" d="M534.81,316.28H668.93s-11.45-54.16-62.15-50.71S534.81,316.28,534.81,316.28Z" transform="translate(-363.96 -73.13)" opacity="0.1"/>
    <circle id="Ellipse_11" data-name="Ellipse 11" cx="69.04" cy="69.04" r="69.04" transform="translate(326.29 502.4)" fill="#be7c5e"/>
    <path id="Path_20" data-name="Path 20" d="M803.92,656.74h0c-20,4.63-33.79-8.43-38.42-28.46l-46-171a37.5,37.5,0,0,1,28-44.85h0a37.5,37.5,0,0,1,44.85,28l37.58,175.38C834.52,635.9,824,652.11,803.92,656.74Z" transform="translate(-363.96 -73.13)" fill="url(#linear-gradient-5)"/>
    <rect id="Rectangle_8" data-name="Rectangle 8" width="62.84" height="250.9" rx="31.42" transform="translate(354.881 355.096) rotate(-13.01)" fill="#be7c5e"/>
    <path id="Path_21" data-name="Path 21" d="M511.71,533.62h0a33.49,33.49,0,0,1-46,10.47l-66.2-42.83a33.49,33.49,0,0,1-10.47-46h0a33.49,33.49,0,0,1,46-10.47l66.2,42.83a33.49,33.49,0,0,1,10.47,46Z" transform="translate(-363.96 -73.13)" fill="url(#linear-gradient-6)"/>
    <path id="Path_22" data-name="Path 22" d="M495.1,624.29h0a33.79,33.79,0,0,1-46.46,10.56l-41-29.91a33.79,33.79,0,0,1-10.56-46.46h0a33.79,33.79,0,0,1,46.46-10.56l41,29.91A33.79,33.79,0,0,1,495.1,624.29Z" transform="translate(-363.96 -73.13)" fill="url(#linear-gradient-7)"/>
    <path id="Path_23" data-name="Path 23" d="M491.8,622.07h0a31.51,31.51,0,0,1-43.33,9.85L410.23,604a31.51,31.51,0,0,1-9.85-43.33h0a31.51,31.51,0,0,1,43.33-9.85l38.24,27.89a31.51,31.51,0,0,1,9.85,43.36Z" transform="translate(-363.96 -73.13)" fill="#be7c5e"/>
    <path id="Path_24" data-name="Path 24" d="M508.09,531.3h0a31.51,31.51,0,0,1-43.33,9.85l-62.29-40.3a31.51,31.51,0,0,1-9.85-43.33h0A31.51,31.51,0,0,1,436,447.67L498.24,488a31.51,31.51,0,0,1,9.85,43.3Z" transform="translate(-363.96 -73.13)" fill="#be7c5e"/>
    <path id="Path_25" data-name="Path 25" d="M528.84,443.4h0a33.64,33.64,0,0,1-46.26,10.51l-83.9-54.63A33.64,33.64,0,0,1,388.17,353h0a33.64,33.64,0,0,1,46.26-10.51l83.9,54.63A33.64,33.64,0,0,1,528.84,443.4Z" transform="translate(-363.96 -73.13)" fill="url(#linear-gradient-8)"/>
    <path id="Path_26" data-name="Path 26" d="M524.38,440.54h0a31.51,31.51,0,0,1-43.33,9.85l-78.58-51.16a31.51,31.51,0,0,1-9.85-43.33h0A31.51,31.51,0,0,1,436,346l78.58,51.16a31.51,31.51,0,0,1,9.8,43.38Z" transform="translate(-363.96 -73.13)" fill="#be7c5e"/>
  </g>
</svg>
