<svg xmlns="http://www.w3.org/2000/svg" width="53.058" height="26.64" viewBox="0 0 53.058 26.64">
  <path id="Path_39" data-name="Path 39" d="M-24.365-22.015v3.922H-26.77v4.144h2.405v7.4c0,2.553.518,4.292,1.554,5.365A5.85,5.85,0,0,0-18.593.37a11.033,11.033,0,0,0,3.663-.481l-.037-4.255a9.185,9.185,0,0,1-1.665.148c-1.7,0-2.22-1-2.22-3.182v-6.549h4.033v-4.144h-4.033v-5.18ZM-11.562,0h5.624V-10.73a3.578,3.578,0,0,1,.185-1.258,2.992,2.992,0,0,1,2.812-1.961c2.109,0,2.923,1.628,2.923,4V0H5.605V-10.582c0-5.439-2.738-7.918-6.327-7.918a6.316,6.316,0,0,0-2.923.7,6.755,6.755,0,0,0-2.22,1.85h-.074V-26.27h-5.624ZM26.1-7.252a13.36,13.36,0,0,0,.185-2.22c0-4.477-2.22-9.028-8.066-9.028-6.29,0-9.139,5.069-9.139,9.657C9.084-3.182,12.6.37,18.741.37A17.859,17.859,0,0,0,25.29-.74l-.74-3.811a15.935,15.935,0,0,1-5,.74c-2.627,0-4.921-1.11-5.106-3.441ZM14.412-11.1c.148-1.517,1.11-3.663,3.478-3.663,2.59,0,3.182,2.294,3.182,3.663Z" transform="translate(26.77 26.27)" fill="#fff"/>
</svg>
